<svg xmlns="http://www.w3.org/2000/svg" viewBox="0 0 32 32" width="32" height="32">
  <defs>
    <radialGradient id="bg" cx="38%" cy="32%" r="62%">
      <stop offset="0%" stop-color="#C8DAF0"/>
      <stop offset="100%" stop-color="#8EB0D4"/>
    </radialGradient>
    <radialGradient id="inner" cx="42%" cy="36%" r="56%">
      <stop offset="0%" stop-color="#FFFAF2"/>
      <stop offset="100%" stop-color="#F2E8CC"/>
    </radialGradient>
    <filter id="s">
      <feDropShadow dx="0" dy="1.5" stdDeviation="2" flood-color="#5A84A8" flood-opacity="0.28"/>
    </filter>
  </defs>
  <!-- Outer shape -->
  <path d="M16 1.5 C23.5 1.2 29.5 6.8 30 13.5 C30.6 21 26 28 19.5 30 C13.5 31.8 6.2 29 3 22.5 C0.2 17 1.2 9.5 5.5 5.5 C8.5 2.8 12.5 1.7 16 1.5Z"
    fill="url(#bg)" filter="url(#s)"/>
  <!-- Inner shape -->
  <path d="M16 7.5 C20 7.3 23.5 9.8 24 13.5 C24.5 17.5 22 22 18.5 23.5 C15.5 24.8 11.5 23.8 9.5 21 C7.8 18.5 8 14.5 9.5 11.5 C11 8.8 13.5 7.6 16 7.5Z"
    fill="url(#inner)"/>
  <!-- Letter D -->
  <text x="16" y="21.5"
    font-family="Palatino Linotype, Palatino, Book Antiqua, Georgia, serif"
    font-size="14.5"
    font-style="italic"
    font-weight="400"
    fill="#4A7AAE"
    text-anchor="middle"
    fill-opacity="0.92">D</text>
</svg>
